<svg width="30" height="30" viewBox="0 0 30 30" fill="none" xmlns="http://www.w3.org/2000/svg">
<path d="M13.2033 0.0514526C8.25497 0.698132 3.83302 3.82625 1.59196 8.30788C-2.12308 15.692 0.885054 24.6854 8.31514 28.4151C14.0607 31.3026 21.0546 30.1746 25.6119 25.6028C31.4627 19.7526 31.4627 10.2479 25.6119 4.39773C23.7619 2.53289 21.1749 1.05907 18.618 0.427427C17.3546 0.0965691 14.3916 -0.098938 13.2033 0.0514526ZM17.4448 3.49539C19.4903 3.91648 21.3253 4.87898 22.9196 6.33777C23.8672 7.19499 25.2359 8.92448 25.2359 9.25534C25.2359 9.42077 24.6493 9.81178 24.5741 9.70651C22.7842 7.10476 21.6261 6.05202 19.4302 5.05945C18.0314 4.42781 16.7981 4.17215 15.0082 4.17215C12.4363 4.17215 10.3907 4.8489 8.42042 6.35281C7.44278 7.08972 6.16432 8.50339 5.75823 9.28542C5.54766 9.69147 5.48749 9.70651 5.1566 9.55612C4.94603 9.46589 4.78058 9.34557 4.78058 9.28542C4.78058 9.07487 5.75823 7.72136 6.49522 6.92429C7.95416 5.31511 10.3306 3.9616 12.5115 3.49539C13.7298 3.22469 16.1964 3.22469 17.4448 3.49539ZM16.7229 6.83405C17.4899 7.36042 18.1668 8.6237 18.1668 9.511C18.1668 10.4133 17.4899 11.6616 16.7078 12.203C15.1135 13.3008 12.6468 12.594 11.8948 10.8044C11.6391 10.2178 11.609 8.93952 11.8347 8.36804C12.0603 7.7364 12.9176 6.86413 13.5794 6.54831C14.4668 6.12722 15.8956 6.24753 16.7229 6.83405ZM5.12652 10.4885C5.54766 10.8194 5.86351 11.5864 5.80335 12.1579C5.75823 12.4737 5.89359 12.594 6.73587 13.0001C9.14237 14.2032 12.0302 14.8499 15.0082 14.8499C17.9863 14.8499 20.8741 14.2032 23.2806 13.0001C24.1229 12.594 24.2582 12.4737 24.2131 12.1579C24.0326 10.5337 25.8676 9.54108 27.0257 10.6239C28.3042 11.827 26.8452 14.0829 25.281 13.3159C24.8899 13.1053 24.7847 13.1354 23.8371 13.6016C21.6863 14.6694 18.1517 15.6018 16.2566 15.6018C15.8956 15.6018 15.6099 15.6469 15.6099 15.692C15.6099 15.7372 16.6777 17.3614 17.9712 19.3014C20.3025 22.7905 20.3326 22.8205 20.859 22.8205C22.5887 22.8205 23.2956 24.9711 21.8668 25.8434C21.1298 26.2946 20.483 26.2194 19.8814 25.6178C19.3249 25.0614 19.2046 24.3846 19.5505 23.6477C19.716 23.2868 19.5806 23.0461 17.3395 19.7375C16.031 17.7975 14.918 16.2034 14.8729 16.2034C14.8277 16.2184 13.7147 17.8125 12.4212 19.7676C10.2103 23.0912 10.0749 23.3319 10.2704 23.6327C10.3907 23.7981 10.496 24.2041 10.496 24.52C10.496 24.9862 10.3907 25.2117 9.96961 25.6328C9.47327 26.1291 9.38302 26.1592 8.73628 26.084C6.67571 25.8584 6.70579 23.1364 8.75132 22.8506L9.50335 22.7453L11.8798 19.2112L14.2712 15.677L13.7749 15.6319C11.2631 15.4364 8.25497 14.6243 6.17936 13.6016C5.2318 13.1354 5.12652 13.1053 4.73546 13.3159C3.69766 13.8272 2.52449 13.0001 2.52449 11.7368C2.52449 11.1803 2.59969 10.9848 2.99075 10.6239C3.57733 10.0825 4.52489 10.0223 5.12652 10.4885ZM4.22408 15.5567C4.35945 17.9479 5.27693 20.309 6.72083 21.9332L7.32245 22.625L7.02164 22.9108C6.70579 23.1965 6.69075 23.1965 5.96879 22.3844C5.14156 21.452 4.01351 19.2864 3.65253 17.9329C3.53221 17.4366 3.3818 16.3688 3.32164 15.5567L3.2314 14.0979H3.68262H4.13384L4.22408 15.5567ZM26.6948 15.6319C26.5444 18.1584 25.6269 20.5196 24.0176 22.4897C23.2806 23.392 23.2204 23.4221 22.9647 23.1815C22.5737 22.8205 22.5887 22.7303 23.3407 21.9032C24.7847 20.294 25.8375 17.5118 25.8375 15.2709V14.0979H26.3188H26.7851L26.6948 15.6319ZM13.3538 25.678C14.6773 25.9035 16.6627 25.7983 17.8509 25.4373C18.6781 25.1967 18.8586 25.2418 18.9489 25.7532C18.994 26.0088 18.8436 26.0991 17.9412 26.3246C16.5273 26.6856 12.7672 26.6104 11.6241 26.2043C10.6916 25.8735 10.7517 25.9336 10.9623 25.4825C11.1277 25.1215 11.1578 25.1065 11.6842 25.302C11.9851 25.4073 12.7371 25.5727 13.3538 25.678Z" fill="#BBFD00"/>
<path d="M13.9552 7.19497C13.0227 7.57094 12.4512 8.47329 12.4512 9.5561C12.4512 10.4133 12.8573 11.1202 13.6544 11.6616C14.0906 11.9623 14.3313 12.0075 15.0382 11.9623C16.1061 11.8871 16.828 11.3758 17.189 10.4133C17.9711 8.39809 15.9556 6.3979 13.9552 7.19497Z" fill="#BBFD00"/>
<path d="M3.51713 11.1653C3.14111 11.5412 3.21632 12.2481 3.6525 12.5338C4.08868 12.8196 4.55494 12.6992 4.87079 12.218C5.39721 11.4209 4.209 10.4885 3.51713 11.1653Z" fill="#BBFD00"/>
<path d="M25.266 11.1202C24.905 11.5864 24.92 11.9774 25.2961 12.3684C25.7322 12.8045 25.9428 12.8346 26.4091 12.5038C26.8001 12.2331 26.8603 11.5262 26.4993 11.1803C26.2135 10.8946 25.4766 10.8645 25.266 11.1202Z" fill="#BBFD00"/>
<path d="M8.24002 23.8733C8.07457 24.0387 7.93921 24.3094 7.93921 24.4749C7.93921 24.8809 8.46563 25.3772 8.88677 25.3772C9.6388 25.3772 10.0299 24.3245 9.47336 23.8282C9.09734 23.4823 8.601 23.5124 8.24002 23.8733Z" fill="#BBFD00"/>
<path d="M20.3778 23.8432C19.8513 24.4297 20.2424 25.3772 20.9944 25.3772C21.4156 25.3772 21.9269 24.8659 21.9269 24.4749C21.9269 24.0688 21.4005 23.5725 20.9794 23.5725C20.7839 23.5725 20.5131 23.6928 20.3778 23.8432Z" fill="#BBFD00"/>
</svg>
