<svg width="180" height="90" viewBox="0 0 180 90" fill="none" xmlns="http://www.w3.org/2000/svg">
<g clip-path="url(#clip0_13_417)">
<path d="M0.107371 13.5093C0.075136 9.14434 0.0780619 4.77944 0.0682398 0.414568C0.0676165 0.137623 0.125247 0.0677129 0.411879 0.067749C60.178 0.0752792 119.944 0.0752778 179.71 0.0678507C179.999 0.0678147 180.085 0.103389 180.084 0.423884C180.074 15.9199 180.075 31.4158 180.075 46.947C179.868 46.9579 179.918 46.7874 179.908 46.6672C179.69 43.9433 177.727 41.7054 175.063 41.1337C173.931 40.8908 172.786 40.8198 171.633 40.757C170.441 40.6921 169.254 40.7653 168.068 40.7904C166.731 40.8186 165.393 40.9058 164.056 40.9771C162.805 41.0438 161.549 41.0181 160.295 40.982C159.78 40.9672 159.663 40.8034 159.663 40.2565C159.66 37.0419 159.695 33.8269 159.647 30.6131C159.624 29.0055 159.554 27.3936 159.295 25.7976C159.094 24.5548 158.595 23.4913 157.75 22.5291C156.514 21.122 155.104 19.9061 153.745 18.6315C152.595 17.5528 151.47 16.451 150.381 15.3078C148.472 13.3049 146.373 11.495 144.396 9.56015C144.03 9.20227 143.628 8.8773 143.279 8.50117C142.247 7.38666 140.919 6.9808 139.458 6.93009C137.492 6.86186 135.672 7.47252 133.904 8.23874C131.352 9.3448 128.856 10.5769 126.304 11.6853C123.833 12.7588 121.366 13.842 118.88 14.8811C118.106 15.2046 117.326 15.5183 116.6 15.9473C114.831 16.992 113.894 18.593 113.589 20.5645C113.248 22.7721 113.919 24.7094 115.451 26.3105C116.503 27.4095 117.829 28.0235 119.363 28.2082C120.993 28.4046 122.471 27.9112 123.901 27.2582C127.686 25.5301 131.521 23.9151 135.331 22.2439C136.123 21.8965 136.917 21.5543 137.71 21.2099C137.821 21.1615 137.952 21.0637 138.058 21.1685C138.165 21.2745 138.064 21.4046 138.014 21.5129C137.529 22.5595 136.905 23.5297 136.344 24.5348C135.272 26.4578 134.217 28.3906 133.151 30.3172C131.97 32.4519 130.791 34.5874 129.615 36.7249C128.439 38.8623 127.273 41.0047 126.086 43.1364C125.697 43.836 125.304 44.5339 124.947 45.2508C124.348 46.4514 123.392 47.3035 122.308 48.0664C118.015 51.088 113.758 54.1588 109.482 57.2036C105.319 60.1686 101.173 63.1582 96.9996 66.1097C93.2151 68.7864 89.4481 71.4877 85.7136 74.2329C84.4493 75.1622 83.7229 76.4843 83.3714 78.0173C82.5865 81.4399 84.3747 85.2698 87.7136 86.4806C90.2724 87.4085 92.6787 87.0379 94.909 85.4335C99.4244 82.1852 103.968 78.9764 108.496 75.745C113.217 72.3754 117.954 69.0274 122.672 65.6537C123.712 64.9104 124.758 64.1765 125.792 63.4258C126.042 63.2447 126.232 63.2181 126.487 63.4307C126.929 63.8006 127.347 64.1997 127.758 64.5988C128.754 65.5665 129.774 66.5133 130.683 67.568C130.982 67.9148 130.978 68.0313 130.563 68.2421C129.636 68.7128 128.686 69.1371 127.74 69.5695C125.506 70.5905 123.25 71.562 121.023 72.5973C119.568 73.2736 118.089 73.8944 116.625 74.5484C115.373 75.1071 114.172 75.7439 113.178 76.7192C112.061 77.8152 111.43 79.1493 111.186 80.6713C110.86 82.7029 111.314 84.5548 112.6 86.1707C113.712 87.5693 115.145 88.4855 116.912 88.8569C117.102 88.8968 117.319 88.8655 117.47 89.0575C78.4556 89.086 39.4447 89.0856 0.433832 89.0941C0.131534 89.0942 0.0665351 89.0379 0.0666505 88.7309C0.075881 64.1808 0.075136 39.6307 0.075136 15.0454C0.308432 15.0524 0.280861 15.2693 0.333688 15.4187C0.64852 16.3092 1.15383 17.0408 1.99636 17.5169C2.35329 17.7186 2.73428 17.8392 3.13414 17.8788C3.53226 17.9182 3.93185 17.9702 4.33145 17.9758C6.24756 18.003 8.1644 18.1346 10.0793 18.0443C11.4915 17.9776 12.9094 18.0326 14.3165 17.8521C15.6299 17.6836 16.4777 16.9068 16.989 15.7521C17.6619 14.2324 17.1247 12.3098 15.8079 11.382C15.2645 10.9991 14.6606 10.8036 13.9869 10.7557C11.7854 10.5994 9.5805 10.5706 7.37776 10.6286C6.00371 10.6648 4.62239 10.6424 3.25482 10.8326C1.84182 11.0291 0.863648 11.7851 0.336915 13.1133C0.282502 13.2505 0.268885 13.4089 0.107371 13.5093Z" fill="#1A2A3A"/>
<path d="M117.502 89.086C116.993 88.9183 116.485 88.8975 116.011 88.7176C114.95 88.3153 113.998 87.7604 113.182 86.9608C112.341 86.1357 111.72 85.1827 111.34 84.0715C111.027 83.1522 110.912 82.1973 111.005 81.2402C111.195 79.2635 111.979 77.5535 113.522 76.2571C114.453 75.4751 115.531 74.9268 116.646 74.4391C117.465 74.0809 118.293 73.7439 119.105 73.3709C120.935 72.5303 122.762 71.6815 124.612 70.8844C125.565 70.4737 126.489 69.9954 127.443 69.5852C128.441 69.1555 129.414 68.6738 130.402 68.2227C130.468 68.1925 130.539 68.1695 130.6 68.1314C130.803 68.0056 130.894 67.9239 130.666 67.6704C129.849 66.7594 128.961 65.9192 128.094 65.0587C127.507 64.4756 126.873 63.94 126.269 63.3736C126.167 63.2781 126.136 63.3119 126.042 63.3793C125.107 64.0484 124.164 64.7059 123.225 65.3694C122.376 65.9693 121.527 66.5684 120.683 67.1752C119.385 68.1081 118.096 69.0519 116.796 69.9823C115.929 70.6035 115.047 71.2049 114.178 71.8232C112.694 72.8779 111.217 73.9404 109.734 74.9966C108.758 75.6924 107.776 76.3806 106.8 77.0763C105.497 78.0044 104.198 78.9373 102.896 79.8666C101.92 80.5628 100.942 81.2557 99.9665 81.9516C98.6566 82.8859 97.3571 83.8352 96.0349 84.7518C95.2017 85.3293 94.414 85.984 93.4803 86.4038C92.7824 86.7176 92.0518 86.9016 91.2829 86.9989C90.1348 87.1443 89.0285 87.0153 87.9411 86.6786C87.2092 86.4519 86.549 86.0722 85.9401 85.6025C84.487 84.4817 83.6187 82.9813 83.2463 81.2259C82.8325 79.275 83.1448 77.3939 84.2225 75.6974C84.7288 74.9004 85.4354 74.2735 86.2287 73.7278C87.578 72.7995 88.8767 71.7982 90.2018 70.8347C91.2005 70.1085 92.2059 69.3913 93.2108 68.6736C94.5917 67.6874 95.9745 66.7039 97.3573 65.7203C98.324 65.0328 99.2906 64.345 100.26 63.6611C101.685 62.6555 103.111 61.6512 104.514 60.6142C105.557 59.8435 106.624 59.1068 107.68 58.3529C109.009 57.403 110.334 56.4468 111.666 55.5014C112.822 54.6816 113.991 53.8808 115.144 53.0577C116.545 52.0578 117.933 51.0396 119.331 50.0365C120.305 49.338 121.283 48.6441 122.268 47.962C123.03 47.4348 123.769 46.8853 124.309 46.1188C124.503 45.8437 124.685 45.5568 124.837 45.2571C125.7 43.555 126.673 41.9136 127.583 40.2371C128.452 38.6345 129.33 37.0366 130.21 35.4399C131.02 33.9707 131.838 32.506 132.653 31.0391C133.431 29.6366 134.224 28.2412 134.983 26.8283C135.406 26.0417 135.843 25.2634 136.273 24.4812C136.872 23.3915 137.556 22.3478 138.074 21.1563C137.776 21.2858 137.503 21.4042 137.229 21.5237C135.584 22.2439 133.94 22.9673 132.294 23.6839C130.746 24.3574 129.202 25.0411 127.644 25.6884C126.096 26.3311 124.619 27.1309 123.049 27.7202C122.3 28.0012 121.534 28.211 120.728 28.3049C119.152 28.4885 117.739 28.0778 116.431 27.2438C115.533 26.6712 114.847 25.8925 114.319 24.9659C113.63 23.7564 113.325 22.4544 113.413 21.0796C113.496 19.7617 113.965 18.5564 114.733 17.4815C115.288 16.7045 116.015 16.112 116.872 15.6841C118.353 14.945 119.903 14.3664 121.422 13.7142C122.531 13.238 123.616 12.7068 124.731 12.246C126.303 11.5964 127.842 10.8757 129.399 10.1932C131.618 9.21993 133.746 8.03798 136.086 7.33682C137.324 6.96586 138.579 6.72883 139.859 6.84591C141.162 6.96511 142.364 7.38217 143.308 8.38398C144.033 9.15354 144.811 9.87642 145.591 10.5923C146.579 11.4998 147.53 12.4469 148.52 13.3513C149.248 14.0163 149.96 14.698 150.627 15.4174C151.272 16.1122 151.93 16.7927 152.615 17.4438C153.719 18.4935 154.84 19.5277 155.969 20.5506C156.914 21.4072 157.751 22.3489 158.517 23.3547C159.033 24.031 159.246 24.8505 159.377 25.6777C159.589 27.0173 159.627 28.3709 159.702 29.7239C159.781 31.171 159.737 32.6145 159.752 34.0592C159.774 36.1352 159.757 38.2116 159.758 40.2879C159.758 40.7828 159.825 40.89 160.302 40.8969C161.543 40.9147 162.786 40.9409 164.026 40.8909C165.041 40.85 166.057 40.801 167.071 40.737C167.944 40.6819 168.824 40.7742 169.683 40.6577C170.659 40.5251 171.618 40.6711 172.578 40.7048C173.946 40.7527 175.315 40.9331 176.578 41.5649C178.136 42.3442 179.146 43.5732 179.699 45.203C179.892 45.7724 180.023 46.3515 180.046 46.9692C180.075 47.2345 180.075 47.4867 180.075 47.7734C179.982 48.0484 180.061 48.3001 180.025 48.546C179.721 50.6489 178.633 52.2225 176.827 53.3331C175.976 53.8566 175.028 54.0112 174.069 54.1256C172.19 54.3499 170.3 54.3899 168.41 54.4503C164.637 54.5708 160.864 54.4435 157.092 54.5259C156.053 54.5486 155.014 54.5873 153.974 54.5826C152.865 54.5775 151.763 54.4507 150.731 54.0318C148.855 53.2704 147.539 51.9546 146.905 50.0054C146.777 49.613 146.652 49.2191 146.488 48.8399C146.449 48.7511 146.435 48.62 146.321 48.6106C146.205 48.6012 146.174 48.7306 146.124 48.8119C145.261 50.1907 144.394 51.5672 143.531 52.9462C142.801 54.1131 142.072 55.2805 141.338 56.4447C141.006 56.9702 141.011 56.9909 141.437 57.4292C142.878 58.9109 144.428 60.2755 145.963 61.6574C146.381 62.0339 146.786 62.4268 147.136 62.8715C147.625 63.4931 148.203 64.0276 148.79 64.5576C150.372 65.9885 151.219 67.7653 151.281 69.9093C151.33 71.62 150.93 73.1898 149.825 74.5256C148.935 75.6012 147.814 76.4009 146.578 77.0397C144.473 78.1275 142.292 79.0546 140.14 80.0412C138.33 80.8713 136.515 81.6934 134.702 82.5175C132.809 83.3779 130.912 84.2314 129.022 85.0973C127.165 85.9475 125.303 86.7858 123.447 87.6361C122.502 88.0689 121.554 88.4973 120.573 88.8485C120.189 88.986 119.798 89.0388 119.372 89.0689C118.744 89.086 118.141 89.086 117.502 89.086Z" fill="#F3F3F3"/>
<path d="M119.383 89.086C119.818 88.953 120.302 88.8567 120.754 88.679C121.617 88.34 122.466 87.9635 123.313 87.5863C124.956 86.8554 126.597 86.1229 128.23 85.3707C128.865 85.0781 129.499 84.7841 130.137 84.4993C131.812 83.7527 133.48 82.9895 135.148 82.2282C136.169 81.7627 137.182 81.2825 138.203 80.8192C140.038 79.9871 141.887 79.1861 143.709 78.3278C145.142 77.6525 146.603 77.025 147.914 76.1115C148.932 75.4015 149.825 74.5707 150.421 73.476C150.794 72.7893 151.016 72.0427 151.112 71.2527C151.268 69.9776 151.179 68.7397 150.73 67.5317C150.463 66.8154 150.09 66.1644 149.613 65.5638C149.235 65.0863 148.789 64.6857 148.331 64.2905C147.558 63.6229 146.998 62.755 146.247 62.0675C145.2 61.1094 144.13 60.1763 143.092 59.2087C142.406 58.5684 141.754 57.8904 141.097 57.2195C140.959 57.0789 140.922 56.9453 141.065 56.7139C142.182 54.9124 143.307 53.1158 144.45 51.3307C145.08 50.3471 145.676 49.3417 146.312 48.3062C146.649 48.8057 146.801 49.3366 146.958 49.856C147.52 51.7067 148.72 52.9913 150.445 53.8121C151.243 54.1918 152.105 54.3174 152.977 54.4207C154.012 54.5432 155.049 54.513 156.08 54.476C159.924 54.3383 163.769 54.4812 167.611 54.3941C168.519 54.3735 169.432 54.3994 170.337 54.3279C171.126 54.2654 171.921 54.2707 172.705 54.1796C173.841 54.0477 174.993 54.0007 176.083 53.5922C176.653 53.3782 177.174 53.0707 177.625 52.6786C178.85 51.6132 179.654 50.2967 179.938 48.6754C179.988 48.3916 179.961 48.1109 180.045 47.8208C180.075 61.4502 180.074 75.0926 180.084 88.7351C180.085 89.0509 180.006 89.0937 179.712 89.0936C159.614 89.0852 139.516 89.086 119.383 89.086Z" fill="#1A2A3A"/>
<path d="M0.0751953 13.5444C0.289561 12.9562 0.475283 12.3908 0.898666 11.9441C1.51399 11.295 2.23372 10.842 3.13792 10.7338C4.25179 10.6006 5.37502 10.6317 6.49094 10.5647C8.15515 10.4648 9.81878 10.4849 11.4782 10.5314C12.5128 10.5605 13.5634 10.505 14.5904 10.7302C15.5263 10.9354 16.2682 11.4295 16.7752 12.2345C17.2025 12.9129 17.4142 13.6697 17.3802 14.4759C17.3116 16.1043 16.2797 17.4733 14.7129 17.9152C14.5016 17.9748 14.2759 17.9961 14.0553 18.0089C13.4716 18.0427 12.8869 18.0586 12.303 18.088C10.4033 18.1836 8.50039 18.2103 6.6021 18.1433C5.4596 18.103 4.30932 18.166 3.17312 18.0077C1.73353 17.8071 0.811225 16.9586 0.301798 15.6306C0.22787 15.4379 0.185439 15.2331 0.101814 15.0221C0.0751953 14.5333 0.0751953 14.0564 0.0751953 13.5444Z" fill="#BBFD00"/>
<path d="M75.8882 17.6962C74.6306 17.2586 73.6984 16.5269 73.3654 15.2115C72.9863 13.7146 73.3103 12.4129 74.4563 11.3263C75.0932 10.7226 75.8581 10.5149 76.6958 10.4288C79.1025 10.1812 81.5168 10.2678 83.9259 10.3051C85.0361 10.3223 86.1515 10.2816 87.2583 10.3667C88.9095 10.4936 90.5599 10.3966 92.2102 10.4304C100.858 10.6074 109.507 10.4582 118.155 10.5072C118.218 10.5075 118.281 10.5026 118.343 10.5089C118.399 10.5145 118.48 10.4806 118.5 10.5643C118.522 10.653 118.451 10.695 118.385 10.7297C117.993 10.9334 117.606 11.149 117.206 11.3366C116.172 11.822 115.13 12.2927 114.15 12.8813C112.508 13.8688 111.11 15.1093 110.288 16.8832C109.803 17.9322 109.515 19.0379 109.402 20.1961C109.352 20.7061 109.324 21.2134 109.345 21.7201C109.435 23.9061 110.085 25.8981 111.434 27.649C112.397 28.8982 113.523 29.9498 114.958 30.6367C115.78 31.0304 116.649 31.2619 117.559 31.3829C118.384 31.4926 119.211 31.4875 120.026 31.4272C121.286 31.334 122.507 30.9997 123.706 30.59C125.205 30.0778 126.637 29.4178 128.059 28.7273C128.481 28.5225 128.896 28.2725 129.434 28.1934C129.059 28.8997 128.719 29.5575 128.363 30.2062C127.856 31.1292 127.334 32.044 126.824 32.9651C125.863 34.6995 124.902 36.4341 123.948 38.1723C123.435 39.106 122.96 40.061 122.426 40.9819C121.83 42.0076 121.326 43.0882 120.625 44.0507C120.271 44.5359 119.743 44.8295 119.269 45.1775C117.758 46.2887 116.236 47.3852 114.716 48.4854C113.336 49.4851 111.953 50.4815 110.572 51.4806C109.122 52.5295 107.675 53.5815 106.224 54.629C105.041 55.4832 103.853 56.3318 102.669 57.1846C101.147 58.2807 99.624 59.3751 98.1057 60.4764C96.656 61.5279 95.2123 62.5878 93.7653 63.6431C92.3186 64.6982 90.8755 65.7584 89.4222 66.8044C88.507 67.4631 87.5721 68.0944 86.653 68.7478C85.2424 69.7507 83.7954 70.7028 82.4842 71.8425C81.2697 72.8983 80.1761 74.0423 79.4936 75.5202C79.1427 76.2801 78.9473 77.0803 78.8555 77.9174C78.6218 80.0467 79.1993 82.0213 79.9472 83.9693C80.0611 84.2657 80.1673 84.5674 80.3119 84.8489C80.4101 85.0402 80.3126 85.0313 80.185 85.0329C80.0847 85.034 79.9844 85.0333 79.884 85.0333C70.4653 85.0333 61.0465 85.0209 51.6278 85.0478C50.3425 85.0515 49.0548 85.1129 47.7678 85.1045C47.0764 85.1 46.3907 85.0067 45.7407 84.7598C44.4799 84.2808 43.7179 83.3401 43.4315 82.055C43.1297 80.7005 43.578 79.5331 44.537 78.5578C45.0654 78.0203 45.7503 77.7726 46.4787 77.6853C47.6412 77.546 48.814 77.4665 49.9825 77.5357C52.3226 77.6744 54.6645 77.5221 57.0024 77.6117C60.6093 77.7499 64.2163 77.6677 67.8225 77.6558C68.9055 77.6523 70.0109 77.688 71.0848 77.4499C72.4307 77.1513 73.4933 76.4282 74.2413 75.2654C74.6886 74.57 74.9313 73.7896 74.935 72.9785C74.9402 71.8728 74.5704 70.8789 73.8526 70.0034C73.1867 69.1914 72.3837 68.6372 71.355 68.4239C71.0429 68.3592 70.7219 68.3028 70.4048 68.3022C66.4291 68.294 62.4533 68.3125 58.4778 68.2858C57.4834 68.2791 56.4823 68.1542 55.6008 67.617C54.6155 67.0165 54.0737 66.137 53.9499 64.9849C53.8521 64.0742 54.0402 63.2262 54.5159 62.4655C55.095 61.5394 55.9802 61.047 57.0553 60.8637C58.2438 60.6612 59.4448 60.6611 60.634 60.7336C62.1859 60.8284 63.735 60.7786 65.2847 60.7858C69.16 60.8037 73.0356 60.809 76.9107 60.7828C78.3634 60.7729 79.8218 60.7346 81.265 60.5567C82.9382 60.3505 84.0452 59.3575 84.6466 57.8309C85.2692 56.2504 84.9965 54.7465 84.0507 53.3594C83.5526 52.6288 82.8836 52.089 82.0279 51.8391C81.6079 51.7164 81.1569 51.6505 80.7193 51.6477C80.0949 51.6437 79.4757 51.5738 78.8542 51.5459C77.6798 51.4931 76.5053 51.5206 75.3323 51.48C70.7099 51.3204 66.0862 51.4036 61.4639 51.4273C57.6316 51.4469 53.7991 51.4634 49.9668 51.4973C48.9865 51.5059 48.0053 51.4994 47.0284 51.4691C45.5641 51.4237 44.3413 50.8279 43.6579 49.4717C42.9582 48.0832 43.1751 46.2759 44.2706 45.1155C44.9757 44.3687 45.8353 44.0885 46.8514 44.0429C49.8439 43.9088 52.8369 44.0414 55.8285 43.9771C63.5233 43.8116 71.2197 43.8635 78.9138 43.9273C87.8887 44.0017 96.8629 43.9395 105.837 43.9721C107.617 43.9785 108.918 43.0797 109.82 41.5856C110.337 40.7279 110.572 39.7826 110.459 38.7898C110.319 37.5533 109.753 36.5106 108.766 35.7426C107.977 35.1293 107.062 34.8221 106.053 34.7318C105.503 34.6827 104.958 34.6907 104.411 34.6755C98.5475 34.5124 92.6817 34.5534 86.8187 34.6189C78.4081 34.713 69.9981 34.632 61.588 34.664C60.6513 34.6676 59.7121 34.5029 58.9351 33.9197C58.0563 33.2601 57.5802 32.3658 57.4851 31.2563C57.3864 30.1044 57.8201 29.1557 58.5577 28.332C59.0533 27.7786 59.7007 27.4659 60.4587 27.3912C61.7073 27.2682 62.9584 27.2119 64.2117 27.1525C66.5779 27.0403 68.9429 27.1377 71.3078 27.0947C71.7341 27.0869 72.1607 27.0943 72.5871 27.0935C75.2911 27.0882 77.9952 27.1443 80.6978 27.1944C82.6747 27.2309 84.6511 27.2316 86.6272 27.2297C87.6063 27.2287 88.6019 27.1506 89.4878 26.6393C90.771 25.8987 91.6051 24.831 91.883 23.356C92.1676 21.845 91.7697 20.5181 90.7398 19.4052C90.0327 18.6412 89.1265 18.1788 88.0845 18.0128C86.7844 17.8057 85.4701 17.8058 84.1665 17.8769C82.0386 17.993 79.9122 17.9129 77.7855 17.9237C77.1642 17.9269 76.5289 17.8725 75.8882 17.6962Z" fill="#BBFD00"/>
<path d="M24.5322 16.9642C23.2738 15.6926 23.1957 13.4658 24.2528 12.0495C24.8757 11.2151 25.7721 10.7644 26.8084 10.6624C29.4638 10.4013 32.1296 10.4775 34.7894 10.518C44.3766 10.6637 53.9639 10.5286 63.5509 10.5891C64.6639 10.5962 65.7379 10.7963 66.5423 11.6891C67.112 12.3215 67.4037 13.057 67.5119 13.9022C67.638 14.8878 67.4414 15.7881 66.8889 16.5861C66.3142 17.4162 65.499 17.9121 64.4704 18.0125C61.2249 18.329 57.9694 18.1784 54.7218 18.1349C51.8551 18.0965 48.9872 18.049 46.1232 18.1055C40.5105 18.2163 34.8985 18.1417 29.2865 18.1372C28.2695 18.1364 27.2262 18.2019 26.2117 17.9433C25.5597 17.7772 25.0314 17.4204 24.5322 16.9642Z" fill="#BBFD00"/>
<path d="M17.6846 27.2437C18.3365 27.2435 18.9548 27.1986 19.5645 27.2523C20.9888 27.3777 22.4167 27.2379 23.8368 27.3302C25.6886 27.4507 27.5411 27.427 29.3889 27.3786C34.2238 27.2519 39.0584 27.3392 43.8928 27.3386C45.0385 27.3385 46.193 27.3212 47.336 27.4097C48.2336 27.4792 49.1643 27.3616 50.0254 27.6591C51.2305 28.0754 51.9535 28.9788 52.2158 30.2115C52.4989 31.5414 52.2139 32.7635 51.275 33.7663C50.6715 34.4108 49.8883 34.7431 48.9905 34.8291C46.3583 35.0815 43.7182 35.0169 41.0857 34.9538C37.1277 34.8588 33.1703 34.886 29.2143 34.9234C27.0758 34.9437 24.9348 35.0057 22.7984 34.9541C20.8345 34.9067 18.8696 34.9693 16.9093 34.8809C15.9045 34.8355 14.8932 34.8882 13.8934 34.7459C12.3985 34.5331 11.4789 33.6082 11.0996 32.2294C10.7029 30.7875 10.9883 29.4316 12.1082 28.343C12.7023 27.7654 13.45 27.4717 14.2565 27.4049C15.3834 27.3116 16.5166 27.2938 17.6846 27.2437Z" fill="#BBFD00"/>
<path d="M161.237 6.9301C160.646 6.05774 160.132 5.17547 159.791 4.2004C159.716 3.98646 159.743 3.84765 159.898 3.67264C160.454 3.04714 160.72 2.35657 160.241 1.55861C160.159 1.42179 160.194 1.36511 160.338 1.3242C160.43 1.29811 160.518 1.24934 160.598 1.19611C160.877 1.01083 161.066 1.03475 161.109 1.40631C161.137 1.65488 161.272 1.65512 161.479 1.60916C162.309 1.42449 163.12 1.16499 163.962 1.02392C168.476 0.267641 174.08 2.93396 175.563 8.4702C175.918 9.79709 175.996 11.137 175.806 12.4953C175.785 12.6431 175.789 12.7947 175.787 12.9446C175.785 13.1785 175.697 13.3949 175.656 13.6204C175.587 13.9989 175.27 13.7905 175.082 13.8582C174.666 14.0081 174.378 14.29 174.125 14.6142C173.916 14.8812 173.71 14.9463 173.361 14.8733C170.419 14.2574 167.682 13.1927 165.306 11.3074C163.734 10.0599 162.403 8.59019 161.237 6.9301Z" fill="#F3F3F3"/>
<path d="M25.8611 51.6388C24.9673 51.6515 24.0908 51.6871 23.2716 51.4421C22.0203 51.0679 21.2651 50.1264 20.9545 48.8992C20.6085 47.5323 20.8076 46.2365 21.9024 45.2249C22.509 44.6645 23.2376 44.3494 24.0854 44.273C27.0695 44.004 30.059 44.1557 33.0455 44.1515C33.8256 44.1504 34.628 44.1532 35.4058 44.3422C36.7858 44.6777 37.6572 45.5769 37.9752 46.902C38.3179 48.3298 38.0533 49.6833 36.9066 50.7271C36.3736 51.2123 35.7416 51.5019 34.9924 51.5685C32.0833 51.8269 29.169 51.6594 26.2578 51.7107C26.1323 51.7129 26.0064 51.7198 25.8611 51.6388Z" fill="#BBFD00"/>
<path d="M43.8877 60.9417C45.001 60.9496 46.0717 61.0582 47.1108 61.332C48.0217 61.572 48.5687 62.2504 48.913 63.0957C49.3839 64.2516 49.3368 65.4193 48.8113 66.5251C48.3283 67.5414 47.4958 68.1896 46.3483 68.3718C45.1488 68.5623 43.9355 68.5785 42.7331 68.5043C41.6328 68.4364 40.5356 68.4844 39.438 68.4446C39.0753 68.4314 38.7278 68.5634 38.3624 68.5244C37.3397 68.4153 36.3027 68.4306 35.3482 67.9257C33.9982 67.2116 33.2564 65.6181 33.5419 64.1047C33.6959 63.2882 34.0313 62.5753 34.5898 62.0053C35.211 61.3712 36.0173 61.0073 36.9188 60.9466C38.3354 60.8514 39.7553 60.7492 41.1744 60.8051C41.9342 60.835 42.6934 60.8573 43.4535 60.8702C43.5867 60.8725 43.7192 60.9168 43.8877 60.9417Z" fill="#BBFD00"/>
<path d="M169.481 20.8054C168.561 21.1491 167.632 21.346 166.703 21.5428C166.493 21.5871 166.298 21.5867 166.219 21.8928C166.161 22.1182 165.847 21.9463 165.652 21.9869C165.571 22.0037 165.474 22.0083 165.472 21.8699C165.466 21.3395 165.133 20.9964 164.755 20.6978C164.473 20.4747 164.381 20.2288 164.416 19.8634C164.642 17.5149 164.745 15.1548 165.099 12.8186C165.2 12.1491 165.212 12.134 165.761 12.5168C167.961 14.0485 170.433 14.9239 173.016 15.5386C173.531 15.6612 173.995 15.8078 174.288 16.3408C174.48 16.691 174.375 16.9254 174.161 17.1027C173.62 17.5504 173.161 18.0756 172.666 18.5659C171.736 19.4862 170.777 20.3572 169.481 20.8054Z" fill="#F3F3F3"/>
<path d="M162.888 10.0118C163.266 10.4139 163.622 10.8006 163.987 11.1787C164.15 11.3475 164.18 11.4259 163.904 11.5108C161.372 12.2884 158.845 13.0796 156.318 13.8693C156.163 13.9177 156.039 13.9091 155.903 13.803C155.465 13.4602 155.006 13.1582 154.407 13.2129C154.348 13.2183 154.268 13.2242 154.267 13.138C154.265 12.957 154.206 12.7066 154.299 12.6109C154.44 12.467 154.476 12.3223 154.499 12.1544C154.609 11.3497 154.56 10.5338 154.693 9.72846C154.934 8.27381 155.463 6.94725 156.351 5.76412C156.658 5.35463 156.937 4.92328 157.246 4.5152C157.399 4.31303 157.398 4.17786 157.176 4.0375C157.028 3.94367 156.864 3.81464 157.114 3.6538C157.268 3.55488 157.361 3.15705 157.638 3.54128C157.79 3.75337 158.045 3.8366 158.288 3.88785C158.676 3.96965 158.913 4.18626 159.091 4.53697C159.379 5.10381 159.729 5.63883 160.022 6.20354C160.759 7.62731 161.722 8.87813 162.888 10.0118Z" fill="#F3F3F3"/>
<path d="M155.851 16.6963C155.47 16.819 155.599 16.4058 155.409 16.3107C155.334 16.2736 155.407 16.1174 155.507 16.0339C155.887 15.7188 156.1 15.299 156.218 14.8296C156.255 14.683 156.31 14.5966 156.47 14.5484C159.075 13.7601 161.679 12.964 164.283 12.1703C164.293 12.167 164.307 12.1734 164.339 12.1782C164.405 12.9103 164.322 13.6425 164.261 14.3723C164.105 16.2637 163.924 18.1531 163.692 20.0373C163.666 20.2531 163.577 20.3658 163.402 20.4654C162.924 20.7382 162.432 21.0033 162.24 21.5761C162.2 21.6934 162.143 21.6682 162.045 21.6326C161.894 21.5779 161.631 21.6347 161.643 21.4205C161.655 21.1876 161.515 21.1413 161.386 21.0661C160.998 20.8398 160.617 20.5908 160.207 20.4132C158.496 19.6735 157.204 18.4568 156.15 16.9547C156.078 16.8511 156.047 16.6894 155.851 16.6963Z" fill="#F3F3F3"/>
<path d="M158.252 3.15356C157.705 2.61076 157.824 2.04609 158.53 1.80214C158.793 1.71086 159.066 1.53876 159.361 1.78076C159.653 2.0204 160.012 2.23427 159.951 2.66436C159.886 3.13035 159.485 3.32229 159.086 3.45345C158.761 3.56007 158.529 3.31153 158.252 3.15356Z" fill="#BCFD04"/>
<path d="M164.722 22.1337C164.473 22.7026 164.122 22.9443 163.705 22.8598C163.17 22.7515 162.841 22.28 162.939 21.7625C163.043 21.22 163.426 20.9007 163.896 20.9661C164.513 21.0521 164.804 21.4519 164.722 22.1337Z" fill="#BCFD04"/>
<path d="M154.709 15.6863C154.153 15.6486 153.82 15.4078 153.729 15.0006C153.644 14.619 153.835 14.2213 154.194 14.0342C154.562 13.8428 155.118 13.9277 155.413 14.2164C155.645 14.4441 155.685 14.7257 155.59 15.0108C155.457 15.4069 155.182 15.6596 154.709 15.6863Z" fill="#BCFD03"/>
<path d="M176.377 15.1992C176.383 15.7637 176.101 16.1732 175.667 16.2691C175.313 16.3473 174.658 15.9937 174.557 15.598C174.471 15.2582 174.656 14.9501 174.904 14.7054C175.162 14.4492 175.547 14.3967 175.871 14.5505C176.139 14.6779 176.278 14.9035 176.377 15.1992Z" fill="#BCFD04"/>
<path d="M166.65 9.71492C165.335 8.80927 164.954 7.35533 165.634 5.90534C166.326 4.4275 167.863 3.71314 169.403 4.15319C171.253 4.68201 172.135 6.25997 171.549 7.99177C170.925 9.83797 169.058 10.73 167.277 10.0281C167.069 9.9461 166.874 9.83089 166.65 9.71492Z" fill="#F8F9F9"/>
<path d="M167.596 9.38673C166.388 8.84544 165.868 7.93124 166.093 6.7888C166.317 5.65822 167.295 4.77061 168.364 4.72957C169.389 4.69021 170.384 5.2253 170.745 6.05433C171.191 7.07462 170.925 7.99749 170.22 8.78744C169.515 9.57626 168.622 9.75523 167.596 9.38673Z" fill="#1C2C3B"/>
</g>
<defs>
<clipPath id="clip0_13_417">
<rect width="180" height="89.011" fill="white"/>
</clipPath>
</defs>
</svg>
